<?xml version="1.0" standalone="no"?><!DOCTYPE svg PUBLIC "-//W3C//DTD SVG 1.1//EN" "http://www.w3.org/Graphics/SVG/1.1/DTD/svg11.dtd"><svg t="1510534958705" class="icon" style="" viewBox="0 0 1310 1024" version="1.1" xmlns="http://www.w3.org/2000/svg" p-id="1080" xmlns:xlink="http://www.w3.org/1999/xlink" width="255.859375" height="200"><defs><style type="text/css"></style></defs><path d="M1310.72 66.88768c0 36.90496-29.32736 66.84672-65.536 66.84672H65.536c-36.20864 0-65.536-29.9008-65.536-66.84672C0 29.9008 29.32736 0 65.536 0h1179.648c36.20864 0 65.536 29.94176 65.536 66.88768zM1310.72 359.46496c0 36.90496-29.32736 66.84672-65.536 66.84672H65.536c-36.20864 0-65.536-29.9008-65.536-66.84672 0-36.94592 29.32736-66.88768 65.536-66.88768h1179.648c36.20864 0 65.536 29.9008 65.536 66.88768zM1310.72 652.00128c0 36.94592-29.32736 66.88768-65.536 66.88768H65.536c-36.20864 0-65.536-29.94176-65.536-66.88768 0-36.90496 29.32736-66.84672 65.536-66.84672h1179.648c36.20864 0 65.536 29.9008 65.536 66.84672zM1310.72 944.57856c0 36.94592-29.32736 66.88768-65.536 66.88768H65.536c-36.20864 0-65.536-29.94176-65.536-66.88768 0-36.90496 29.32736-66.84672 65.536-66.84672h1179.648c36.20864 0 65.536 29.9008 65.536 66.84672z" p-id="1081" fill="#97d0d1"></path></svg>